<svg xmlns="http://www.w3.org/2000/svg" width="400" height="220.45" viewBox="0 0 400 220.45"><defs><style>.cls-1{fill:#8fc8d0;}.cls-2{fill:#61a048;}.cls-3{fill:#fff;}.cls-4{fill:#231f20;}</style></defs><g id="Layer_4" data-name="Layer 4"><path class="cls-1" d="M86.52,83s-11.76-.27-14,3.71,2.18,8.64,3.47,9.11,16.74,8.49,16.79,10S92,109.17,90.23,111s-2.75,6.79.71,9.3,6.69,2.47,9.3,1.38,6.83-3.66,8.25-3.85,6.78-.42,7.92,1.9a4.22,4.22,0,0,1-.28,4.22s-2.18,4.22-.67,6.64,3.94,7,9.68,7.55,14.33-3.09,16.51-4.7,13.71-8.63,15-8.92,5.65.29,6.69,3.37-2.51,6-1.66,9.3,3.39,6.81,14.34,4.23,24-11,24-11,11.43-17.59,17.33-14.44,9.72,6.72,10.7,10.17,6,4.37,10.34,3.72,18.26-8.06,18.57-17V100.27Z"/></g><g id="Layer_3" data-name="Layer 3"><path class="cls-2" d="M204.72,132.35h3a4.43,4.43,0,0,0,1.93,3.62h-6.52s-3.74-13.64-19.56-9.54c0,0-5.19.36-6.27-.72s-3.26-2.18.36-3.62,4.59-2.3,4.22-3.26-3.86-3.14-7.6-2.78-17.38.48-22.45-13.52c0,0-9.78,4.59-13.64,14.61,0,0-4.71-6.16-9.3-8.45s-18.78-6-18.78-6S80.34,94.15,79.74,73,129,30.46,126.42,22.35c0,0,5.13,6.45,10.22,7.75s13.15,3.14,13.15,3.14A20.23,20.23,0,0,1,165,31.55c8.7,2.42,4.59-6.15,2.42-8.57s-1.93-12.43,15.33-5.67c0,0,4.95-.61,7.36-7.12s13.88-9.54,17.26,4c0,0,2.42,3.26,9.3-.24s15.45,2.53,7.85,12.07c0,0-5.33,4.26-.25,5.15s5.64-.66,7.35-1.09c1.92-.49,20.12-4.26,22.25,4.94,0,0,17.92-3.85,21.56-13.12,0,0,2.27,10,14.08,14S349,81.48,282,107.35c0,0-13.66,5-15.45,12.56,0,0-10.26-14.14-13.91-15.93,0,0-11,4.17-16.09,4.55s-9.16,3.87-1.79,5.06,3.5,5.06,2.24,5.59-8.87,2.75-15,2-14.15,3.65-14.15,3.65l-5.27,3.63Z"/></g><g id="Layer_2" data-name="Layer 2"><path class="cls-3" d="M135.36,42.52c-10.85-7.18-11.93-12.83-11.93-12.83-3.79,7.59-3.07,5.6-13,13.92A41.55,41.55,0,0,0,96,72.7c-.36,8.67,5.06,24.39,15,30.72s12.46,15.36,12.46,15.36,3.34-9.58,9.06-12.7,22-18.21,17.82-38.24S135.36,42.52,135.36,42.52Z"/><path class="cls-3" d="M205.79,129.86l-3.22-1.39s-3.88-5.43-8.24-5.14-8.71,1.49-11,0-.95-2.45,1-3.4,5.59-2.17,1.14-4.35-8.81-.09-11.46-1.51-11.65-6.44-10.8-11.27,2.27-3.6,3.88-3.89,5.59-1.13,5-4.16-9.56-13.07-9.56-13.07-12.12-12.78-5.4-18.37a5.8,5.8,0,0,1,5.21,0c2.65,1.42,7.29.28,7.58-1s1.32-2.56-6.25-9.66S160.62,40.85,161,40.47s7.2-3.6,13.45-1.42,3.45-5.12,2.65-5.87-4.36-5.59-.1-8.62,9.32,1.54,10.61,1.51c.76,0,2.56.76,5.21-3.78s3.78-5.59,4.35-6,5.59-2.56,9.28.47c0,0,2.28,1.8,2.83,3.28s-.27,3.79,1.58,4.35,6-2.43,7.87-2.45c2,0,8.24-.26,5.14,10s3,6.13,3,6.13,12.37-7.67,11.48,8.49c0,0-.9,6.44-3,9.18s-3.68,7.42-3.12,8.09,1,1.28,3.35,1.34,4.35.28,5.36,1.73,2,7.37.44,10.6-4.07,9.1-7.42,11.67c0,0-2.4,1.39.56,3.18s6.42.89,7.2,4-1.61,6.77-13.41,10-9.7,4.21-8.79,4.85,6,.09,5.95,2.74-.55,3.74-11.16,5.94-5.13,10-5.13,10Z"/><path class="cls-3" d="M273.42,116s-3-6.12-6.37-8.87-42.18-30.81,0-67.81c0,0,7.59-4.84,7.47-9.72,0,0,1.2,7.33,7.82,10.32S329.15,74.23,273.42,116Z"/></g><g id="Layer_6" data-name="Layer 6"><rect class="cls-2" x="119.8" y="53.47" width="8.78" height="35.69"/><polygon class="cls-2" points="182.71 53.37 182.71 89.11 191.66 89.11 191.66 72.53 209.42 72.53 209.42 89.11 218.3 89.11 218.3 53.37 209.42 53.37 209.42 67.89 191.73 67.89 191.73 53.37 182.71 53.37"/><path class="cls-2" d="M286.72,53.78s-10.29-2.21-17.27-.68-13.86,10.63-4,16.75S275.83,74.7,279,77.17s.34,7.31-2.64,7.57A38.27,38.27,0,0,1,261,83v5.69s13,2.64,19.82.51,9.78-5.78,8.51-12.5-18.89-10.38-19.65-15,6.21-4.34,7.57-4.25,9,1.53,9.52,2Z"/><path class="cls-4" d="M65.76,150.59h4.3v16.67h-4.3Z"/><path class="cls-4" d="M75.19,150.59h7c5.25,0,9,3.15,9,8.32s-3.77,8.35-9,8.35h-7Zm7,12.92a4.43,4.43,0,0,0,4.62-4.6,4.27,4.27,0,0,0-4.6-4.57H79.49v9.17Z"/><path class="cls-4" d="M102,161.61h-2.2v5.65h-4.3V150.59h8.35c3.7,0,5.79,2.45,5.79,5.55a5,5,0,0,1-3.32,5l3.4,6.12h-4.92Zm1.2-7.4h-3.4V158h3.4a1.88,1.88,0,1,0,0-3.75Z"/><path class="cls-4" d="M124,164.73h-5.68l-1.4,2.53h-4.7l10-16.67h14v3.62h-7.93V157H136v3.65h-7.75v3h7.93v3.63H124Zm-3.73-3.62H124v-6.77Z"/><path class="cls-4" d="M144.46,154.34h-4.67v-3.75h13.62v3.75h-4.65v12.92h-4.3Z"/><path class="cls-4" d="M158.46,161.69a7.57,7.57,0,0,0,5.33,2.19c1.47,0,2.37-.62,2.37-1.42,0-1-1.07-1.32-2.85-1.7-2.75-.55-6.6-1.25-6.6-5.2,0-2.8,2.38-5.22,6.65-5.22a10.16,10.16,0,0,1,6.77,2.32l-2.35,3.08a7.72,7.72,0,0,0-4.69-1.73c-1.43,0-2,.58-2,1.3,0,.88,1,1.18,2.88,1.53,2.74.57,6.54,1.37,6.54,5.15,0,3.34-2.47,5.57-6.94,5.57a10.18,10.18,0,0,1-7.4-2.65Z"/><path class="cls-4" d="M185.88,160.56H179v6.7h-4.3V150.59H179v6.22h6.92v-6.22h4.3v16.67h-4.3Z"/><path class="cls-4" d="M212.28,158.94c0,5.07-3.8,8.62-8.89,8.62a9.58,9.58,0,0,1-4.38-1l-1.37,1.9-1.73-1.25,1.33-1.85a8.38,8.38,0,0,1-2.78-6.42c0-5.08,3.83-8.63,8.93-8.63a9.34,9.34,0,0,1,4.09.88l1.3-1.8,1.73,1.25-1.23,1.67A8.36,8.36,0,0,1,212.28,158.94Zm-12.54,3,5.39-7.5a4.77,4.77,0,0,0-1.74-.33,4.5,4.5,0,0,0-4.55,4.83A5.17,5.17,0,0,0,199.74,161.94Zm8.17-3a5.19,5.19,0,0,0-1-3.23l-5.5,7.6a4.43,4.43,0,0,0,2,.45A4.51,4.51,0,0,0,207.91,158.94Z"/><path class="cls-4" d="M216.46,162.79a3.75,3.75,0,0,0,2.4,1,2.11,2.11,0,0,0,2.23-2.27v-10.9h4.3v10.95c0,4.12-2.5,6-6.15,6a6.79,6.79,0,0,1-4.58-1.5Z"/><path class="cls-4" d="M231.59,161.69a7.57,7.57,0,0,0,5.32,2.19c1.48,0,2.38-.62,2.38-1.42,0-1-1.08-1.32-2.85-1.7-2.75-.55-6.6-1.25-6.6-5.2,0-2.8,2.37-5.22,6.65-5.22a10.2,10.2,0,0,1,6.77,2.32l-2.35,3.08a7.74,7.74,0,0,0-4.7-1.73c-1.42,0-2,.58-2,1.3,0,.88,1,1.18,2.87,1.53,2.75.57,6.55,1.37,6.55,5.15,0,3.34-2.48,5.57-6.95,5.57a10.22,10.22,0,0,1-7.4-2.65Z"/><path class="cls-4" d="M253.21,161l-1.12,1.39v4.88h-4.3V150.59h4.3v6.85l5.12-6.85h5.3l-6.47,7.8,6.82,8.87h-5.28Z"/><path class="cls-4" d="M273.33,150.31c5.1,0,8.9,3.55,8.9,8.63s-3.8,8.62-8.9,8.62-8.92-3.55-8.92-8.62S268.24,150.31,273.33,150.31Zm0,3.8a4.83,4.83,0,1,0,4.53,4.83A4.5,4.5,0,0,0,273.33,154.11Z"/><path class="cls-4" d="M286.54,150.59h4.29v12.92h6.7v3.75h-11Z"/><path class="cls-4" d="M301.89,150.59h12.22v3.62h-7.93V157h7.75v3.65h-7.75v3h7.93v3.63H301.89Z"/><path class="cls-4" d="M323,157.19v10.07h-4.29V150.59h4.42l6.75,9.6v-9.6h4.32v16.67h-4.15Z"/><path class="cls-4" d="M106.52,191.69a7.57,7.57,0,0,0,5.33,2.19c1.47,0,2.37-.62,2.37-1.42,0-1-1.07-1.32-2.85-1.7-2.75-.55-6.59-1.25-6.59-5.2,0-2.8,2.37-5.22,6.64-5.22a10.21,10.21,0,0,1,6.78,2.32l-2.35,3.08a7.77,7.77,0,0,0-4.7-1.73c-1.43,0-2,.58-2,1.3,0,.88,1,1.18,2.88,1.53,2.75.57,6.55,1.37,6.55,5.15,0,3.34-2.48,5.57-6.95,5.57a10.2,10.2,0,0,1-7.4-2.65Z"/><path class="cls-4" d="M139.7,188.94c0,5.07-3.8,8.62-8.9,8.62a9.58,9.58,0,0,1-4.38-1l-1.37,1.9-1.72-1.25,1.32-1.85a8.41,8.41,0,0,1-2.77-6.42c0-5.08,3.82-8.63,8.92-8.63a9.41,9.41,0,0,1,4.1.88l1.3-1.8,1.72,1.25-1.22,1.67A8.39,8.39,0,0,1,139.7,188.94Zm-12.55,3,5.4-7.5a4.87,4.87,0,0,0-1.75-.33,4.5,4.5,0,0,0-4.55,4.83A5.17,5.17,0,0,0,127.15,191.94Zm8.17-3a5.13,5.13,0,0,0-1-3.23l-5.5,7.6a4.43,4.43,0,0,0,2,.45A4.51,4.51,0,0,0,135.32,188.94Z"/><path class="cls-4" d="M148.3,187.19v10.07H144V180.59h4.42l6.75,9.6v-9.6h4.33v16.67h-4.15Z"/><path class="cls-4" d="M164.62,180.59h7c5.25,0,9,3.15,9,8.32s-3.78,8.35-9,8.35h-7Zm7,12.92a4.43,4.43,0,0,0,4.63-4.6,4.27,4.27,0,0,0-4.6-4.57h-2.73v9.17Z"/><path class="cls-4" d="M184.92,180.59h12.23v3.62h-7.93V187H197v3.65h-7.75v3h7.93v3.63H184.92Z"/><path class="cls-4" d="M208.27,191.61h-2.2v5.65h-4.29V180.59h8.34c3.7,0,5.8,2.45,5.8,5.55a5,5,0,0,1-3.32,5l3.4,6.12h-4.93Zm1.2-7.4h-3.4V188h3.4a1.89,1.89,0,1,0,0-3.75Z"/><path class="cls-4" d="M220.42,180.59h9.45c3.3,0,4.88,2.15,4.88,4.25a3.73,3.73,0,0,1-2.85,3.82,4,4,0,0,1,3.17,4.08c0,2.42-1.62,4.52-4.9,4.52h-9.75ZM228.9,187a1.41,1.41,0,0,0,1.47-1.45,1.39,1.39,0,0,0-1.47-1.43h-4.18V187Zm.15,6.64a1.49,1.49,0,0,0,1.65-1.52,1.54,1.54,0,0,0-1.65-1.57h-4.33v3.09Z"/><path class="cls-4" d="M247.62,180.31c5.1,0,8.9,3.55,8.9,8.63s-3.8,8.62-8.9,8.62-8.92-3.55-8.92-8.62S242.52,180.31,247.62,180.31Zm0,3.8a4.83,4.83,0,1,0,4.53,4.83A4.5,4.5,0,0,0,247.62,184.11Z"/><path class="cls-4" d="M267.32,191.61h-2.2v5.65h-4.3V180.59h8.35c3.7,0,5.8,2.45,5.8,5.55a5,5,0,0,1-3.32,5l3.39,6.12h-4.92Zm1.2-7.4h-3.4V188h3.4a1.89,1.89,0,1,0,0-3.75Z"/><path class="cls-4" d="M287.65,180.31a7.85,7.85,0,0,1,7.12,3.88l-3.6,1.9a4.14,4.14,0,0,0-3.52-2,4.83,4.83,0,0,0,0,9.65,5.2,5.2,0,0,0,3.15-1v-1.4H287v-3.57h8v6.52a9.64,9.64,0,0,1-7.37,3.25c-5,0-9-3.33-9-8.62S282.67,180.31,287.65,180.31Z"/></g></svg>
