<svg xmlns="http://www.w3.org/2000/svg" width="60" height="40" viewBox="0 0 60 40"><defs><style>.cls-1{fill:#232b65;}.cls-2{fill:#fff;}.cls-3{fill:#ca202a;}</style></defs><g id="Layer_7" data-name="Layer 7"><rect class="cls-1" width="60" height="40"/><rect class="cls-2" x="-12.27" y="15.98" width="84.54" height="8.03" transform="translate(-6.05 19.63) rotate(-33.1)"/><rect class="cls-2" x="-12.24" y="15.97" width="84.54" height="8.03" transform="translate(16.72 -13.54) rotate(34.72)"/><rect class="cls-3" x="26.02" y="7.16" width="38.78" height="2.45" transform="translate(2.79 26.16) rotate(-33.1)"/><rect class="cls-3" x="26.02" y="27.66" width="38.78" height="2.45" transform="translate(24.53 -20.72) rotate(34.72)"/><rect class="cls-3" x="-4.14" y="29.49" width="38.78" height="2.45" transform="translate(44.8 48.13) rotate(146.9)"/><rect class="cls-3" x="-8.28" y="7.16" width="38.78" height="2.45" transform="translate(15.47 21.6) rotate(-145.28)"/><rect class="cls-2" x="24.01" y="-10" width="11.99" height="60" transform="translate(10 50) rotate(-90)"/><rect class="cls-2" x="24.01" width="11.99" height="40" transform="translate(60 40) rotate(180)"/><rect class="cls-3" x="26.02" y="-0.02" width="7.95" height="40"/><rect class="cls-3" x="26.02" y="-10.02" width="7.95" height="60" transform="translate(10.02 49.98) rotate(-90)"/></g></svg>
